<svg viewBox="0 0 2500 775" xmlns="http://www.w3.org/2000/svg" xml:space="preserve" fill-rule="evenodd" clip-rule="evenodd" stroke-linejoin="round" stroke-miterlimit="2">
  <path id="big-name" fill="none" d="M0 0h2500v775H0z"/>
  <clipPath id="_clip1">
    <path d="M0 0h2500v775H0z"/>
  </clipPath>
  <g clip-path="url(#_clip1)">
    <g id="big-name1" fill-rule="nonzero">
      <path d="M425.634 30.38v502.499c0 21.137-1.121 40.673-3.363 58.608-2.242 17.935-5.925 33.308-11.049 46.119-8.327 20.497-19.696 39.232-34.108 56.206-14.412 16.975-31.226 31.387-50.442 43.236-19.216 11.85-40.514 21.138-63.893 27.864-23.38 6.725-47.88 10.088-73.502 10.088C111.773 775 48.681 739.45 0 668.351l122.982-125.864c3.203 21.778 10.249 39.072 21.138 51.883 10.889 12.81 24.34 19.216 40.353 19.216 35.23 0 52.844-27.863 52.844-83.59V30.38h188.317Z"/>
      <path d="M842.127 21.556c33.373-8.62 68.499-13.223 104.741-13.223 41.931 0 82.369 6.162 120.362 17.587a398.44 398.44 0 0 1 40.572 13.588c49.321 19.536 91.756 46.599 127.306 81.188 35.549 34.588 63.252 75.102 83.109 121.541 18.363 42.946 28.235 89.043 29.615 138.288.113 3.707.169 7.418.169 11.142l-.001.273.002.662c0 53.805-9.929 103.926-29.785 150.365-19.857 46.439-47.56 86.952-83.109 121.541-35.55 34.589-77.985 61.651-127.306 81.188-47.98 19.004-100.202 28.765-156.676 29.281a378.89 378.89 0 0 1-4.258.023l-.223-.001-.258.001c-58.929 0-112.894-9.768-161.894-29.304-49.001-19.537-91.116-46.599-126.345-81.188-35.23-34.589-62.773-75.102-82.629-121.541-19.857-46.439-29.785-96.56-29.785-150.365l.002-.662-.001-.273c0-3.724.056-7.435.169-11.142 1.379-49.245 11.252-95.342 29.615-138.288 19.856-46.439 47.399-86.953 82.629-121.541 35.229-34.589 77.344-61.652 126.345-81.188 18.502-7.377 37.713-13.361 57.634-17.952Z" fill="url(#_Radial2)"/>
      <path d="M1864.91 215.815c-20.497-16.654-40.995-28.984-61.492-36.991-20.497-8.007-40.353-12.01-59.569-12.01-24.34 0-44.197 5.765-59.57 17.294-15.372 11.53-23.059 26.582-23.059 45.158 0 12.811 3.843 23.379 11.53 31.706 7.686 8.327 17.775 15.533 30.265 21.618 12.49 6.085 26.582 11.37 42.275 15.854a1121.95 1121.95 0 0 1 46.599 14.411c61.491 20.498 106.488 47.88 134.992 82.149 28.504 34.268 42.756 78.946 42.756 134.031 0 37.151-6.245 70.779-18.736 100.884-12.49 30.105-30.745 55.887-54.765 77.345-24.02 21.457-53.485 38.111-88.394 49.961-34.909 11.85-74.462 17.775-118.659 17.775-91.596 0-176.467-27.223-254.612-81.668l80.708-151.806c28.183 24.981 56.046 43.556 83.589 55.726 27.543 12.17 54.766 18.255 81.668 18.255 30.746 0 53.645-7.046 68.697-21.137 15.053-14.092 22.579-30.105 22.579-48.04 0-10.889-1.922-20.337-5.765-28.344-3.843-8.006-10.248-15.373-19.216-22.098-8.967-6.726-20.657-12.971-35.069-18.736-14.412-5.765-31.866-12.17-52.363-19.216a1050.681 1050.681 0 0 1-71.58-25.461c-23.379-9.288-44.197-21.618-62.452-36.991-18.255-15.373-32.987-34.749-44.197-58.128-11.209-23.38-16.814-53.004-16.814-88.874s5.925-68.377 17.775-97.521c11.85-29.144 28.504-54.125 49.962-74.943 21.457-20.817 47.719-36.99 78.785-48.52 31.066-11.53 65.815-17.294 104.247-17.294 35.87 0 73.341 4.964 112.413 14.892 39.073 9.928 76.544 24.5 112.414 43.716l-74.942 147.003ZM2500 189.873h-223.866v121.061h211.376v159.493h-211.376v124.904H2500v159.492h-412.183V30.38H2500v159.493Z"/>
    </g>
  </g>
  <defs>
    <radialGradient id="_Radial2" cx="0" cy="0" r="1" gradientUnits="userSpaceOnUse" gradientTransform="scale(802.2872) rotate(1.583 -16.824 24.862)">
      <stop offset="0" stop-color="#d7d7d7"/>
      <stop offset="1"/>
    </radialGradient>
  </defs>
</svg>