<svg viewBox="0 0 2500 2500" xmlns="http://www.w3.org/2000/svg" xml:space="preserve" fill-rule="evenodd" clip-rule="evenodd" stroke-linecap="round" stroke-linejoin="round" stroke-miterlimit="10">
  <path id="link-svg" fill="none" d="M0 0h2500v2500H0z"/>
  <clipPath id="_clip1">
    <path d="M0 0h2500v2500H0z"/>
  </clipPath>
  <g clip-path="url(#_clip1)">
    <path d="m1250 0 156.757 260.273 229.514-199.094 68.656 295.976 279.805-118.426-26.166 302.705 302.705-26.166-118.426 279.805 295.976 68.656-199.094 229.514L2500 1250l-260.273 156.757 199.094 229.514-295.976 68.656 118.426 279.805-302.705-26.166 26.166 302.705-279.805-118.426-68.656 295.976-229.514-199.094L1250 2500l-156.757-260.273-229.514 199.094-68.656-295.976-279.805 118.426 26.166-302.705-302.705 26.166 118.426-279.805-295.976-68.656 199.094-229.514L0 1250l260.273-156.757L61.179 863.729l295.976-68.656-118.426-279.805 302.705 26.166-26.166-302.705 279.805 118.426 68.656-295.976 229.514 199.094L1250 0Z" fill="#fff981"/>
    <path d="m1250 0 156.757 260.273 229.514-199.094 68.656 295.976 279.805-118.426-26.166 302.705 302.705-26.166-118.426 279.805 295.976 68.656-199.094 229.514L2500 1250l-260.273 156.757 199.094 229.514-295.976 68.656 118.426 279.805-302.705-26.166 26.166 302.705-279.805-118.426-68.656 295.976-229.514-199.094L1250 2500l-156.757-260.273-229.514 199.094-68.656-295.976-279.805 118.426 26.166-302.705-302.705 26.166 118.426-279.805-295.976-68.656 199.094-229.514L0 1250l260.273-156.757L61.179 863.729l295.976-68.656-118.426-279.805 302.705 26.166-26.166-302.705 279.805 118.426 68.656-295.976 229.514 199.094L1250 0Zm0 32.304 152.706 253.547 223.583-193.949 66.882 288.327 272.573-115.366-25.49 294.883 294.883-25.49-115.366 272.573 288.327 66.882-193.949 223.583L2467.696 1250l-253.547 152.706 193.949 223.583-288.327 66.882 115.366 272.573-294.883-25.49 25.49 294.883-272.573-115.366-66.882 288.327-223.583-193.949L1250 2467.696l-152.706-253.547-223.583 193.949-66.882-288.327-272.573 115.366 25.49-294.883-294.883 25.49 115.366-272.573-288.327-66.882 193.949-223.583L32.304 1250l253.547-152.706L91.902 873.711l288.327-66.882-115.366-272.573 294.883 25.49-25.49-294.883 272.573 115.366 66.882-288.327 223.583 193.949L1250 32.304Z"/>
    <g transform="translate(-56187.5 -36363.5) scale(4.16667)">
      <text x="13636.2" y="8931.78" font-family="'Futura-Medium','Futura',sans-serif" font-weight="500" font-size="76.997" transform="rotate(-25.22731 13636.17149737 8931.77891822)">V</text>
      <text x="13688.3" y="8909.52" font-family="'Futura-Medium','Futura',sans-serif" font-weight="500" font-size="76.997" transform="rotate(-15.15875 13688.33310972 8909.48829257)">i</text>
      <text x="13710.5" y="8903.41" font-family="'Futura-Medium','Futura',sans-serif" font-weight="500" font-size="76.997" transform="rotate(-9.53624 13710.56641571 8903.3663538)">s</text>
      <text x="13745.1" y="8898.03" font-family="'Futura-Medium','Futura',sans-serif" font-weight="500" font-size="76.997" transform="rotate(-4.7219 13745.17370208 8897.99955716)">i</text>
      <text x="13768.2" y="8896.21" font-family="'Futura-Medium','Futura',sans-serif" font-weight="500" font-size="76.997" transform="rotate(-.83817 13768.39370583 8896.02035688)">t</text>
      <text x="13820.6" y="8897.53" font-family="'Futura-Medium','Futura',sans-serif" font-weight="500" font-size="76.997" transform="rotate(7.45547 13820.67961985 8897.5544633)">t</text>
      <text x="13846.9" y="8900.57" font-family="'Futura-Medium','Futura',sans-serif" font-weight="500" font-size="76.997" transform="rotate(14.08989 13846.92391984 8900.59477036)">h</text>
      <text x="13891.8" y="8911.87" font-family="'Futura-Medium','Futura',sans-serif" font-weight="500" font-size="76.997" transform="rotate(25.49152 13891.77983244 8911.86158506)">e</text>
    </g>
    <text x="432.988" y="1225.2" font-family="'Futura-Bold','Futura',sans-serif" font-weight="700" font-size="320.821">L<tspan x="619.706 749.318 1019.13 1218.04 1343.16 1566.45 1696.06 1883.42" y="1225.2 1225.2 1225.2 1225.2 1225.2 1225.2 1225.2 1225.2">IVE SITE</tspan></text>
    <path d="m982.658 1766.76 258.846 31.846c.905-1.399 1.774-2.836 2.602-4.306.144-.257.287-.514.429-.773l-290.416-163.595c-.147.256-.293.511-.438.768-22.387 39.742-9.138 92.582 28.977 136.06Z" fill="#fff"/>
    <clipPath id="_clip2">
      <path d="m982.658 1766.76 258.846 31.846c.905-1.399 1.774-2.836 2.602-4.306.144-.257.287-.514.429-.773l-290.416-163.595c-.147.256-.293.511-.438.768-22.387 39.742-9.138 92.582 28.977 136.06Z"/>
    </clipPath>
    <g clip-path="url(#_clip2)">
      <circle cx="1090.56" cy="1745.83" r="50" stroke="#000" stroke-width="16.67"/>
      <circle cx="1071.81" cy="1733.02" r="18.75" fill="#fff"/>
    </g>
    <path d="m982.658 1766.76 258.846 31.846c.905-1.399 1.774-2.836 2.602-4.306.144-.257.287-.514.429-.773l-290.416-163.595c-.147.256-.293.511-.438.768-22.387 39.742-9.138 92.582 28.977 136.06Z" fill="none" stroke="#000" stroke-width="16.67"/>
    <path d="M1233.33 1795.83c6.518 4.632 31.891 4.167 37.5 0M1244.54 1787.5c-57.575-52.523-115.15-105.045-172.725-157.568M1244.54 1787.5c-28.787-55.556-57.575-111.111-86.362-166.667" fill="none" stroke="#000" stroke-width="16.67"/>
    <path d="m1517.34 1766.76-258.846 31.846c-.905-1.399-1.774-2.836-2.602-4.306-.144-.257-.287-.514-.429-.773l290.416-163.595c.147.256.293.511.438.768 22.387 39.742 9.138 92.582-28.977 136.06Z" fill="#fff"/>
    <clipPath id="_clip3">
      <path d="m1517.34 1766.76-258.846 31.846c-.905-1.399-1.774-2.836-2.602-4.306-.144-.257-.287-.514-.429-.773l290.416-163.595c.147.256.293.511.438.768 22.387 39.742 9.138 92.582-28.977 136.06Z"/>
    </clipPath>
    <g clip-path="url(#_clip3)">
      <circle cx="1409.44" cy="1745.83" r="50" stroke="#000" stroke-width="16.67"/>
      <circle cx="1388.48" cy="1737.5" r="18.75" fill="#fff"/>
    </g>
    <path d="m1517.34 1766.76-258.846 31.846c-.905-1.399-1.774-2.836-2.602-4.306-.144-.257-.287-.514-.429-.773l290.416-163.595c.147.256.293.511.438.768 22.387 39.742 9.138 92.582-28.977 136.06ZM1255.46 1787.5c57.575-52.523 115.15-105.045 172.725-157.568M1255.46 1787.5c28.787-55.556 57.575-111.111 86.362-166.667M1067.96 1958.33c41.666-15.277 125-45.833 187.5-45.833s145.833 30.556 187.5 45.833" fill="none" stroke="#000" stroke-width="16.67"/>
  </g>
</svg>