<svg viewBox="0 0 1334 6401">
  <g class="banner">
    <path class="background-left background" d="M0 0h305.075v1217.37H0z"/>
    <path class="background-top background" d="M352.138 0h766.018v297.587H352.138z"/>
    <path class="background-right background" d="M1160.81 0h172.527v984.671H1160.81z"/>
    <path class="proj-background-left background" d="M0 1244.27h305.075v5154.01H0z"/>
    <path class="proj-background background" d="M351.667 1027.61h981.667v5370.68H351.667z"/>
    <path class="about-background background" d="M351.716 340.417h766.018v644.254H351.716z"/>
    <path class="j letters" d="M105.42 0v124.457c0 5.235-.278 10.074-.833 14.516-.555 4.442-1.468 8.25-2.737 11.423a51.078 51.078 0 0 1-8.448 13.921c-3.569 4.204-7.734 7.773-12.493 10.708-4.759 2.935-10.034 5.236-15.825 6.901-5.79 1.666-11.859 2.499-18.204 2.499-19.196 0-34.823-8.805-46.88-26.414l30.46-31.174c.793 5.394 2.538 9.677 5.235 12.85 2.697 3.173 6.029 4.759 9.995 4.759 8.725 0 13.088-6.901 13.088-20.703V0h46.642Z"/>
    <path class="period letters" d="M137.069 156.583c0-3.808.714-7.417 2.142-10.828 1.428-3.411 3.411-6.385 5.949-8.924 2.539-2.538 5.513-4.521 8.924-5.949 3.411-1.428 7.02-2.141 10.828-2.141 3.807 0 7.416.713 10.827 2.141 3.411 1.428 6.386 3.411 8.924 5.949 2.538 2.539 4.521 5.513 5.949 8.924 1.428 3.411 2.142 7.02 2.142 10.828 0 3.807-.714 7.416-2.142 10.827-1.428 3.411-3.411 6.386-5.949 8.924-2.538 2.538-5.513 4.521-8.924 5.949-3.411 1.428-7.02 2.142-10.827 2.142-3.808 0-7.417-.714-10.828-2.142-3.411-1.428-6.385-3.411-8.924-5.949-2.538-2.538-4.521-5.513-5.949-8.924-1.428-3.411-2.142-7.02-2.142-10.827Z"/>
    <path class="r letters" d="M844.786 57.35h43.072v19.99c4.6-7.298 10.232-12.89 16.895-16.777 6.664-3.887 14.437-5.83 23.321-5.83h3.689c1.348 0 2.895.158 4.64.476v41.168c-5.711-2.856-11.898-4.283-18.561-4.283-9.995 0-17.491 2.974-22.488 8.923-4.998 5.95-7.496 14.635-7.496 26.058v191.927h-43.072V57.35Z"/>
    <path class="about-top-gradient" d="M844.786 336.4v326.218h43.072V336.4h-43.072Z" fill="url(#_Linear1)"/>
    <path class="top-bar dividers" d="M330.075 297.587h810.146v42.829H330.075z"/>
    <path class="about-bottom-gradient" d="M844.786 988.837V662.618h43.072v326.219h-43.072Z" fill="url(#_Linear2)"/>
    <path class="t letters" d="M1160.81 93.283v912.802h-43.072V93.283h-14.279V57.35h14.279V0h43.072v57.35h24.51v35.933h-24.51Z"/>
    <path class="middle-bar dividers" d="M330.075 984.671h1003.26v42.829H330.075z"/>
    <path class="e-second letters" d="M1046.34 100.66c-1.428-6.028-4.363-10.867-8.805-14.516-4.442-3.649-9.836-5.473-16.181-5.473-6.663 0-12.097 1.745-16.301 5.235-4.204 3.491-6.862 8.409-7.972 14.754h49.259Zm-50.449 24.987c0 18.561 8.726 27.842 26.177 27.842 9.36 0 16.419-3.807 21.179-11.422h41.644c-8.408 27.921-29.429 41.882-63.061 41.882-10.312 0-19.752-1.547-28.319-4.64-8.566-3.094-15.904-7.496-22.012-13.208-6.107-5.711-10.827-12.532-14.159-20.465-3.331-7.932-4.997-16.816-4.997-26.652 0-10.153 1.586-19.315 4.759-27.485 3.173-8.171 7.695-15.111 13.564-20.823 5.87-5.711 12.97-10.113 21.299-13.207 8.328-3.093 17.728-4.64 28.199-4.64 10.312 0 19.592 1.547 27.842 4.64 8.25 3.094 15.23 7.576 20.941 13.445 5.711 5.87 10.074 13.049 13.088 21.536 3.015 8.488 4.522 18.046 4.522 28.676v4.521h-90.666Z"/>
    <path class="proj-p letters proj" d="M121.454 1894.21h230.213v27.863H11.796v-31.57c0-15.466 1.076-27.146 3.229-35.038 2.152-7.973 6.218-14.988 12.197-21.047 10.364-10.603 23.439-15.905 39.224-15.905 16.901 0 30.294 5.661 40.18 16.981 9.886 11.321 14.828 26.588 14.828 45.801v12.915Zm-25.83 0v-10.404c0-25.591-9.845-38.386-29.537-38.386-19.054 0-28.58 13.194-28.58 39.582v9.208h58.117Z"/>
    <path class="proj-r letters proj" d="M79.959 1794.96v-26.906h10.404c-5.182-4.943-8.73-9.327-10.643-13.154-1.993-3.906-2.99-8.53-2.99-13.872 0-7.095 2.312-14.509 6.936-22.242l24.634 12.317c-3.667 5.102-5.501 10.085-5.501 14.948 0 14.669 11.082 22.003 33.244 22.003h60.39v26.906H79.959Z"/>
    <path class="proj-o letters proj" d="M137.359 1711.01c-16.822 0-31.132-6.019-42.931-18.057-11.799-12.038-17.698-26.707-17.698-44.007 0-17.38 5.939-32.128 17.818-44.246 11.879-11.958 26.468-17.938 43.768-17.938 17.459 0 32.088 6.019 43.887 18.058 11.719 12.117 17.579 26.986 17.579 44.604 0 17.459-5.98 32.088-17.938 43.887-11.799 11.799-26.627 17.699-44.485 17.699Zm.478-27.504c11.64 0 20.848-3.11 27.624-9.328 6.856-6.378 10.284-14.788 10.284-25.232 0-10.523-3.388-18.934-10.164-25.232-6.777-6.298-15.825-9.447-27.146-9.447-11.32 0-20.369 3.149-27.145 9.447-6.856 6.378-10.284 14.788-10.284 25.232 0 10.284 3.428 18.615 10.284 24.993 6.856 6.378 15.705 9.567 26.547 9.567Z"/>
    <path class="proj-j letters proj" d="M79.959 1531.39h179.854v26.907H79.959v-26.907Zm-48.432 30.972c-4.703 0-8.769-1.714-12.197-5.142-3.428-3.428-5.142-7.534-5.142-12.317 0-4.863 1.714-9.008 5.142-12.437 3.348-3.428 7.454-5.142 12.317-5.142s9.009 1.714 12.437 5.142c3.428 3.349 5.142 7.455 5.142 12.318 0 4.863-1.714 9.008-5.142 12.436-3.428 3.428-7.614 5.142-12.557 5.142Z"/>
    <path class="proj-e letters proj" d="M144.534 1391.24v83.47c9.567-.718 17.18-3.827 22.84-9.328 5.581-5.501 8.371-12.556 8.371-21.166 0-6.697-1.594-12.238-4.783-16.622-3.189-4.305-9.088-9.208-17.698-14.709l12.675-22.721c5.98 3.508 11.102 7.215 15.367 11.121 4.265 3.907 7.773 8.092 10.523 12.557 2.751 4.464 4.764 9.287 6.039 14.469 1.276 5.182 1.914 10.803 1.914 16.861 0 17.38-5.581 31.331-16.742 41.855-11.241 10.523-26.149 15.785-44.724 15.785-18.416 0-33.324-5.103-44.725-15.307-11.241-10.284-16.861-23.917-16.861-40.898 0-17.14 5.461-30.693 16.383-40.658 10.842-9.886 25.87-14.828 45.083-14.828l6.338.119Zm-22.003 27.624c-14.35 3.747-21.525 12.795-21.525 27.146 0 3.268.498 6.337 1.494 9.207a26.37 26.37 0 0 0 4.305 7.833c1.874 2.352 4.126 4.365 6.757 6.039 2.631 1.674 5.62 2.95 8.969 3.827v-54.052Z"/>
    <path class="proj-c letters proj" d="M84.981 1271.18h35.756c-7.494 6.139-12.636 11.64-15.426 16.503-2.87 4.783-4.305 10.404-4.305 16.861 0 10.125 3.547 18.536 10.642 25.232 7.096 6.697 15.985 10.045 26.668 10.045 10.922 0 19.89-3.228 26.906-9.686 7.015-6.537 10.523-14.868 10.523-24.993 0-6.457-1.395-12.158-4.185-17.1-2.711-4.784-7.972-10.404-15.785-16.862h35.516c5.66 10.922 8.491 21.844 8.491 32.766 0 18.017-5.82 33.085-17.46 45.203-11.719 12.118-26.268 18.177-43.648 18.177-17.379 0-32.048-6.139-44.006-18.416-11.959-12.278-17.938-27.345-17.938-45.203 0-11.48 2.75-22.322 8.251-32.527Z"/>
    <path class="proj-t letters proj" d="M105.071 1217.37h246.596v26.906H105.071v11.48H79.959v-11.48H0v-26.906h79.959v-20.927h25.112v20.927Z"/>
    <path class="proj-s letters proj" d="m99.81 1110.46 11.838 22.243c-7.175 3.507-10.762 7.852-10.762 13.034 0 2.472.817 4.584 2.451 6.338 1.635 1.754 3.727 2.631 6.279 2.631 4.464 0 8.889-5.182 13.273-15.546 6.139-14.27 11.799-23.877 16.981-28.82 5.182-4.942 12.158-7.414 20.927-7.414 11.241 0 20.648 4.146 28.222 12.437 7.175 8.052 10.763 17.778 10.763 29.178 0 19.532-9.527 33.364-28.581 41.496l-10.643-22.96c5.581-3.189 9.128-5.621 10.643-7.295 3.03-3.268 4.544-7.175 4.544-11.719 0-9.088-4.145-13.633-12.436-13.633-4.784 0-9.248 3.508-13.394 10.524a378.323 378.323 0 0 0-3.946 8.131 758.652 758.652 0 0 1-3.946 8.252c-3.827 7.813-7.654 13.313-11.48 16.502-4.863 4.066-11.122 6.099-18.775 6.099-10.125 0-18.496-3.468-25.113-10.404-6.616-7.095-9.925-15.705-9.925-25.83 0-14.908 7.693-25.989 23.08-33.244Z"/>
    <path id="projects-top-gradient" fill="url(#_Linear3)" d="M347.5 1217.37h774.401v26.906H347.5z"/>
    <path id="projects-bottom-gradient" fill="url(#_Linear4)" d="M347.5 1894.21h774.401v27.863H347.5z"/>
    <path id="projects-bottom-gradient1" fill="url(#_Linear5)" d="M347.5 2789.74h774.401v27.863H347.5z"/>
    <path id="projects-bottom-gradient2" fill="url(#_Linear6)" d="M347.55 3685.27h774.401v27.863H347.55z"/>
    <path id="projects-bottom-gradient3" fill="url(#_Linear7)" d="M347.599 4581.11H1122v27.863H347.599z"/>
    <path id="projects-bottom-gradient4" fill="url(#_Linear8)" d="M347.599 5476.64H1122v27.863H347.599z"/>
    <path id="projects-bottom-gradient5" fill="url(#_Linear9)" d="M347.599 6372.17H1122v27.863H347.599z"/>
    <path id="projects-bottom-gradient6" fill="url(#_Linear10)" d="M347.5 2111.94h774.401v27.863H347.5z"/>
    <path id="projects-bottom-gradient7" fill="url(#_Linear11)" d="M347.5 3007.47h774.401v27.863H347.5z"/>
    <path id="projects-bottom-gradient8" fill="url(#_Linear12)" d="M347.55 3903h774.401v27.863H347.55z"/>
    <path id="projects-bottom-gradient9" fill="url(#_Linear13)" d="M347.599 4798.84H1122v27.863H347.599z"/>
    <path id="projects-bottom-gradient10" fill="url(#_Linear14)" d="M347.599 5694.37H1122v27.863H347.599z"/>
    <path class="n letters" d="M351.716 6400.03h-46.641V0h46.641l86.145 109.703V0h46.403v179.428h-46.403L351.716 69.725v6330.3Z"/>
    <path class="e-first letters" d="M609.911 100.66c-1.427-6.028-4.362-10.867-8.804-14.516-4.443-3.649-9.836-5.473-16.182-5.473-6.663 0-12.097 1.745-16.301 5.235-4.204 3.491-6.861 8.409-7.972 14.754h49.259Zm-50.449 24.987c0 18.561 8.726 27.842 26.177 27.842 9.36 0 16.419-3.807 21.179-11.422h41.644c-8.408 27.921-29.429 41.882-63.061 41.882-10.312 0-19.752-1.547-28.318-4.64-8.567-3.094-15.905-7.496-22.013-13.208-6.107-5.711-10.827-12.532-14.159-20.465-3.331-7.932-4.997-16.816-4.997-26.652 0-10.153 1.587-19.315 4.759-27.485 3.173-8.171 7.695-15.111 13.565-20.823 5.869-5.711 12.969-10.113 21.298-13.207 8.329-3.093 17.728-4.64 28.199-4.64 10.312 0 19.593 1.547 27.842 4.64 8.25 3.094 15.23 7.576 20.941 13.445 5.712 5.87 10.074 13.049 13.089 21.536 3.014 8.488 4.521 18.046 4.521 28.676v4.521h-90.666Z"/>
    <path class="g letters" d="M714.617 117.794c0 3.966.714 7.655 2.142 11.066 1.428 3.41 3.371 6.385 5.83 8.923 2.459 2.539 5.394 4.522 8.805 5.95 3.411 1.427 7.099 2.141 11.065 2.141 3.808 0 7.417-.714 10.828-2.141 3.411-1.428 6.346-3.411 8.805-5.95 2.459-2.538 4.442-5.513 5.949-8.923 1.507-3.411 2.261-7.021 2.261-10.828 0-3.966-.754-7.615-2.261-10.947a29.583 29.583 0 0 0-6.068-8.804c-2.539-2.539-5.513-4.522-8.924-5.95a27.182 27.182 0 0 0-10.59-2.141c-3.807 0-7.377.753-10.708 2.26-3.332 1.508-6.267 3.491-8.805 5.95-2.538 2.459-4.561 5.354-6.068 8.685-1.507 3.332-2.261 6.902-2.261 10.709Zm96.615-60.444v113.749c0 6.822-.397 12.929-1.19 18.323-.793 5.394-1.904 10.154-3.331 14.278-1.904 5.236-4.879 10.114-8.924 14.635-4.046 4.522-8.924 8.448-14.635 11.78-5.711 3.331-12.176 5.949-19.394 7.853-7.219 1.903-15.032 2.855-23.44 2.855-9.519 0-18.245-1.189-26.177-3.569-7.932-2.38-14.873-5.672-20.822-9.876s-10.827-9.122-14.635-14.754c-3.807-5.632-6.346-11.779-7.615-18.442h48.545c3.015 8.091 9.836 12.136 20.466 12.136 9.042 0 15.983-2.538 20.822-7.615 4.839-5.077 7.258-12.136 7.258-21.179v-11.66c-3.173 3.014-6.227 5.512-9.162 7.496-2.935 1.983-5.909 3.609-8.924 4.878a42.392 42.392 0 0 1-9.518 2.736c-3.332.556-6.981.833-10.947.833-8.725 0-16.737-1.507-24.035-4.521-7.297-3.014-13.603-7.218-18.918-12.612-5.315-5.394-9.439-11.859-12.374-19.395-2.935-7.535-4.403-15.904-4.403-25.105 0-9.36 1.587-18.046 4.76-26.058 3.172-8.011 7.496-14.992 12.969-20.941 5.473-5.949 11.978-10.629 19.513-14.04 7.536-3.411 15.746-5.116 24.63-5.116 14.437 0 26.573 5.394 36.409 16.181V57.35h43.072Z"/>
    <path class="e-third letters" d="M1293.12 100.66c-1.428-6.028-4.363-10.867-8.805-14.516-4.442-3.649-9.836-5.473-16.182-5.473-6.663 0-12.097 1.745-16.301 5.235-4.204 3.491-6.861 8.409-7.972 14.754h49.26Zm-50.449 24.987c0 18.561 8.725 27.842 26.176 27.842 9.36 0 16.42-3.807 21.179-11.422h41.645c-8.409 27.921-29.429 41.882-63.062 41.882-10.312 0-19.751-1.547-28.318-4.64-8.567-3.094-15.904-7.496-22.012-13.208-6.108-5.711-10.828-12.532-14.159-20.465-3.332-7.932-4.997-16.816-4.997-26.652 0-10.153 1.586-19.315 4.759-27.485 3.173-8.171 7.694-15.111 13.564-20.823 5.87-5.711 12.969-10.113 21.298-13.207 8.329-3.093 17.729-4.64 28.199-4.64 10.312 0 19.593 1.547 27.843 4.64 8.249 3.094 15.229 7.576 20.941 13.445 5.711 5.87 10.074 13.049 13.088 21.536 3.014 8.488 4.521 18.046 4.521 28.676v4.521h-90.665Z"/>
  </g>
  <defs>
    <linearGradient id="_Linear1" x1="0" y1="0" x2="1" y2="0" gradientUnits="userSpaceOnUse" gradientTransform="matrix(0 326.219 -680.957 0 866.322 336.4)">
      <stop offset="0" stop-color="#282828"/>
      <stop offset=".51" stop-color="#5c5c5c" stop-opacity=".25"/>
      <stop offset="1" stop-color="#fff" stop-opacity="0"/>
    </linearGradient>
    <linearGradient id="_Linear2" x1="0" y1="0" x2="1" y2="0" gradientUnits="userSpaceOnUse" gradientTransform="matrix(0 -326.219 -680.957 0 866.322 988.837)">
      <stop offset="0" stop-color="#282828"/>
      <stop offset=".51" stop-color="#5c5c5c" stop-opacity=".25"/>
      <stop offset="1" stop-color="#fff" stop-opacity="0"/>
    </linearGradient>
    <linearGradient id="_Linear3" x1="0" y1="0" x2="1" y2="0" gradientUnits="userSpaceOnUse" gradientTransform="matrix(774.451 4.72355 -4.72385 774.401 347.45 1226.1)">
      <stop offset="0" stop-color="#282828"/>
      <stop offset=".51" stop-color="#393939" stop-opacity=".76"/>
      <stop offset="1" stop-color="#6d6d6d" stop-opacity="0"/>
    </linearGradient>
    <linearGradient id="_Linear4" x1="0" y1="0" x2="1" y2="0" gradientUnits="userSpaceOnUse" gradientTransform="translate(347.5 1908.14) scale(774.401)">
      <stop offset="0" stop-color="#282828"/>
      <stop offset=".51" stop-color="#393939" stop-opacity=".76"/>
      <stop offset="1" stop-color="#6d6d6d" stop-opacity="0"/>
    </linearGradient>
    <linearGradient id="_Linear5" x1="0" y1="0" x2="1" y2="0" gradientUnits="userSpaceOnUse" gradientTransform="translate(347.5 2803.67) scale(774.401)">
      <stop offset="0" stop-color="#282828"/>
      <stop offset=".51" stop-color="#393939" stop-opacity=".76"/>
      <stop offset="1" stop-color="#6d6d6d" stop-opacity="0"/>
    </linearGradient>
    <linearGradient id="_Linear6" x1="0" y1="0" x2="1" y2="0" gradientUnits="userSpaceOnUse" gradientTransform="translate(347.55 3699.2) scale(774.401)">
      <stop offset="0" stop-color="#282828"/>
      <stop offset=".51" stop-color="#393939" stop-opacity=".76"/>
      <stop offset="1" stop-color="#6d6d6d" stop-opacity="0"/>
    </linearGradient>
    <linearGradient id="_Linear7" x1="0" y1="0" x2="1" y2="0" gradientUnits="userSpaceOnUse" gradientTransform="translate(347.599 4595.04) scale(774.401)">
      <stop offset="0" stop-color="#282828"/>
      <stop offset=".51" stop-color="#393939" stop-opacity=".76"/>
      <stop offset="1" stop-color="#6d6d6d" stop-opacity="0"/>
    </linearGradient>
    <linearGradient id="_Linear8" x1="0" y1="0" x2="1" y2="0" gradientUnits="userSpaceOnUse" gradientTransform="translate(347.599 5490.57) scale(774.401)">
      <stop offset="0" stop-color="#282828"/>
      <stop offset=".51" stop-color="#393939" stop-opacity=".76"/>
      <stop offset="1" stop-color="#6d6d6d" stop-opacity="0"/>
    </linearGradient>
    <linearGradient id="_Linear9" x1="0" y1="0" x2="1" y2="0" gradientUnits="userSpaceOnUse" gradientTransform="translate(347.599 6386.1) scale(774.401)">
      <stop offset="0" stop-color="#282828"/>
      <stop offset=".51" stop-color="#393939" stop-opacity=".76"/>
      <stop offset="1" stop-color="#6d6d6d" stop-opacity="0"/>
    </linearGradient>
    <linearGradient id="_Linear10" x1="0" y1="0" x2="1" y2="0" gradientUnits="userSpaceOnUse" gradientTransform="translate(347.5 2125.87) scale(774.401)">
      <stop offset="0" stop-color="#282828"/>
      <stop offset=".51" stop-color="#393939" stop-opacity=".76"/>
      <stop offset="1" stop-color="#6d6d6d" stop-opacity="0"/>
    </linearGradient>
    <linearGradient id="_Linear11" x1="0" y1="0" x2="1" y2="0" gradientUnits="userSpaceOnUse" gradientTransform="translate(347.5 3021.4) scale(774.401)">
      <stop offset="0" stop-color="#282828"/>
      <stop offset=".51" stop-color="#393939" stop-opacity=".76"/>
      <stop offset="1" stop-color="#6d6d6d" stop-opacity="0"/>
    </linearGradient>
    <linearGradient id="_Linear12" x1="0" y1="0" x2="1" y2="0" gradientUnits="userSpaceOnUse" gradientTransform="translate(347.55 3916.93) scale(774.401)">
      <stop offset="0" stop-color="#282828"/>
      <stop offset=".51" stop-color="#393939" stop-opacity=".76"/>
      <stop offset="1" stop-color="#6d6d6d" stop-opacity="0"/>
    </linearGradient>
    <linearGradient id="_Linear13" x1="0" y1="0" x2="1" y2="0" gradientUnits="userSpaceOnUse" gradientTransform="translate(347.599 4812.77) scale(774.401)">
      <stop offset="0" stop-color="#282828"/>
      <stop offset=".51" stop-color="#393939" stop-opacity=".76"/>
      <stop offset="1" stop-color="#6d6d6d" stop-opacity="0"/>
    </linearGradient>
    <linearGradient id="_Linear14" x1="0" y1="0" x2="1" y2="0" gradientUnits="userSpaceOnUse" gradientTransform="translate(347.599 5708.3) scale(774.401)">
      <stop offset="0" stop-color="#282828"/>
      <stop offset=".51" stop-color="#393939" stop-opacity=".76"/>
      <stop offset="1" stop-color="#6d6d6d" stop-opacity="0"/>
    </linearGradient>
  </defs>
</svg>