
<svg viewBox="0 0 199.471 199.471" >
	<g>
		<path d="M191.023,149.927l-3.531-3.531c-0.001-0.001-0.003-0.003-0.004-0.005s-0.003-0.003-0.005-0.004
			L64.186,23.089C54.964,13.868,17.364,2.492,9.919,0.305C7.279-0.47,4.436,0.258,2.497,2.202L2.193,2.507
			C0.256,4.447-0.468,7.289,0.304,9.92c2.188,7.444,13.563,45.044,22.785,54.266l126.837,126.837
			c5.448,5.448,12.691,8.448,20.396,8.448c7.704,0,14.947-3,20.399-8.452l0.3-0.301c5.448-5.448,8.449-12.691,8.449-20.396
			S196.47,155.375,191.023,149.927z M171.577,151.694l-6.406,6.406L52.319,45.248l6.406-6.406L171.577,151.694z M38.841,58.725
			l6.406-6.406L158.1,165.171l-6.406,6.406L38.841,58.725z M46.765,29.588L29.589,46.764c-3.245-6.747-7.214-17.221-10.781-27.957
			C29.545,22.373,40.019,26.342,46.765,29.588z M180.412,180.115l-0.301,0.301c-2.614,2.615-6.091,4.055-9.788,4.055
			c-2.85,0-5.563-0.863-7.856-2.452l19.553-19.553c1.589,2.293,2.452,5.007,2.452,7.856
			C184.471,174.02,183.031,177.497,180.412,180.115z"/>
	</g>
</svg>
