<svg viewBox="0 0 4000 4000" xmlns="http://www.w3.org/2000/svg" xml:space="preserve" fill-rule="evenodd" clip-rule="evenodd" stroke-linejoin="round" stroke-miterlimit="2">
  <path id="icon" d="M3122.2 0v2351.69L1830.17 1000v3000H-.01V0h1137.12v2266.78c0 150.698-16.064 256.264-48.193 316.696-30.598 60.432-85.676 90.648-165.232 90.648-56.608 0-117.422-21.801-182.444-65.404l-130.809 228.342c97.15 58.137 201.568 87.206 313.253 87.206 147.638 0 266.207-52.401 355.708-157.201 45.898-52.782 78.409-117.422 97.533-193.918 19.124-67.317 28.686-169.44 28.686-306.369V0h1716.58Zm267.355 0h610.442v4000h-1902.47V1651.75L3389.557 3000V0Z"/>
</svg>