
<svg viewBox="0 0 241.997 241.997">
	<g>
		<path d="M238.965,85.491c-1.907-1.415-4.372-1.842-6.644-1.154L191.11,96.824l-26.817-21.025
			c-2.309-1.811-5.462-2.107-8.069-0.762L4.064,153.625c-0.221,0.113-0.433,0.238-0.639,0.371c-0.064,0.041-0.124,0.087-0.186,0.13
			c-0.131,0.09-0.26,0.181-0.384,0.279c-0.083,0.066-0.162,0.135-0.242,0.204c-0.095,0.082-0.189,0.163-0.279,0.249
			c-0.086,0.081-0.168,0.166-0.249,0.25c-0.077,0.081-0.153,0.163-0.227,0.247c-0.08,0.092-0.158,0.184-0.233,0.28
			c-0.068,0.086-0.133,0.174-0.198,0.263c-0.07,0.096-0.139,0.193-0.204,0.293c-0.064,0.098-0.123,0.198-0.183,0.3
			c-0.055,0.094-0.112,0.188-0.163,0.284c-0.064,0.121-0.122,0.245-0.179,0.37c-0.037,0.081-0.078,0.161-0.113,0.244
			c-0.07,0.166-0.131,0.336-0.189,0.508c-0.015,0.045-0.034,0.088-0.048,0.134c-0.14,0.441-0.24,0.898-0.296,1.365
			c-0.01,0.082-0.012,0.164-0.02,0.246c-0.013,0.146-0.026,0.292-0.03,0.439c-0.004,0.119,0.001,0.238,0.004,0.356
			c0.002,0.111,0.002,0.222,0.009,0.334c0.009,0.135,0.025,0.269,0.041,0.404c0.009,0.073,0.011,0.146,0.022,0.219
			c0.004,0.027,0.011,0.052,0.015,0.079c0.021,0.129,0.048,0.256,0.075,0.385c0.024,0.111,0.047,0.221,0.076,0.331
			c0.028,0.108,0.061,0.215,0.094,0.322c0.041,0.132,0.084,0.263,0.132,0.391c0.032,0.087,0.066,0.173,0.101,0.258
			c0.062,0.151,0.13,0.299,0.202,0.444c0.021,0.044,0.038,0.089,0.06,0.132c0.01,0.02,0.024,0.036,0.034,0.056
			c0.148,0.28,0.311,0.549,0.491,0.806c0.035,0.051,0.073,0.098,0.11,0.147c0.157,0.213,0.325,0.417,0.503,0.611
			c0.042,0.046,0.081,0.094,0.123,0.138c0.198,0.206,0.41,0.397,0.63,0.578c0.068,0.056,0.137,0.11,0.206,0.163
			c0.217,0.167,0.44,0.325,0.675,0.467c0.019,0.011,0.037,0.025,0.056,0.037c0.255,0.152,0.522,0.283,0.795,0.404
			c0.062,0.028,0.124,0.054,0.187,0.08c0.279,0.115,0.563,0.219,0.857,0.3c0.005,0.001,0.009,0.002,0.014,0.003
			c0.279,0.076,0.566,0.132,0.856,0.176c0.079,0.012,0.159,0.023,0.239,0.033c0.27,0.032,0.542,0.053,0.819,0.055
			c0.025,0,0.05,0.005,0.075,0.005c0.011,0,0.022-0.002,0.033-0.002h226.96c4.142,0,7.5-3.357,7.5-7.5V91.515
			C241.997,89.141,240.872,86.907,238.965,85.491z M158.829,90.575l14.746,11.561l-89.829,27.217L158.829,90.575z M226.997,152.793
			H58.115l133.63-40.488c0.057-0.017,0.114-0.033,0.17-0.052l35.081-10.629V152.793z"/>
	</g>
</svg>
