<?xml version="1.0" encoding="UTF-8" standalone="no"?><!DOCTYPE svg PUBLIC "-//W3C//DTD SVG 1.1//EN" "http://www.w3.org/Graphics/SVG/1.1/DTD/svg11.dtd"><svg width="100%" height="100%" viewBox="0 0 288 268" version="1.1" xmlns="http://www.w3.org/2000/svg" xmlns:xlink="http://www.w3.org/1999/xlink" xml:space="preserve" xmlns:serif="http://www.serif.com/" style="fill-rule:evenodd;clip-rule:evenodd;stroke-linejoin:round;stroke-miterlimit:2;"><g id="logo"><g transform="matrix(2.17964e-16,3.4153,-3.4153,1.87217e-16,397.563,-1288.89)"><g transform="matrix(-0.556206,-0.831044,0.831044,-0.556206,533.92,479.572)"><text x="395.011px" y="97.224px" style="font-family:'HelveticaNeue', 'Helvetica Neue';font-size:16px;fill:#5c1df4;">M</text></g><g transform="matrix(-0.208351,-0.978054,0.978054,-0.208351,384.894,482.272)"><text x="387.625px" y="85.367px" style="font-family:'HelveticaNeue', 'Helvetica Neue';font-size:16px;fill:#5c1df4;">o</text></g><g transform="matrix(0.0854292,-0.996344,0.996344,0.0854292,276.762,454.101)"><text x="385.732px" y="76.297px" style="font-family:'HelveticaNeue', 'Helvetica Neue';font-size:16px;fill:#5c1df4;">n</text></g><g transform="matrix(0.355609,-0.934635,0.934635,0.355609,186.086,404.731)"><text x="386.557px" y="67.414px" style="font-family:'HelveticaNeue', 'Helvetica Neue';font-size:16px;fill:#5c1df4;">s</text></g><g transform="matrix(0.541766,-0.840529,0.840529,0.541766,128.095,354.933)"><text x="389.571px" y="59.985px" style="font-family:'HelveticaNeue', 'Helvetica Neue';font-size:16px;fill:#5c1df4;">t</text></g><g transform="matrix(0.719627,-0.694361,0.694361,0.719627,71.3437,287.895)"><text x="392.167px" y="55.604px" style="font-family:'HelveticaNeue', 'Helvetica Neue';font-size:16px;fill:#5c1df4;">e</text></g><g transform="matrix(0.864148,-0.503238,0.503238,0.864148,29.1155,207.274)"><text x="398.46px" y="49.71px" style="font-family:'HelveticaNeue', 'Helvetica Neue';font-size:16px;fill:#5c1df4;">r</text></g><g transform="matrix(0.990544,-0.137194,0.137194,0.990544,-2.32435,56.2819)"><text x="407.134px" y="45.003px" style="font-family:'HelveticaNeue', 'Helvetica Neue';font-size:16px;fill:#5c1df4;">A</text></g><g transform="matrix(0.984384,0.176036,-0.176036,0.984384,14.2096,-72.8078)"><text x="417.47px" y="43.685px" style="font-family:'HelveticaNeue', 'Helvetica Neue';font-size:16px;fill:#5c1df4;">d</text></g><g transform="matrix(0.880769,0.473546,-0.473546,0.880769,72.4151,-196.723)"><text x="426.867px" y="45.443px" style="font-family:'HelveticaNeue', 'Helvetica Neue';font-size:16px;fill:#5c1df4;">o</text></g><g transform="matrix(0.692215,0.721691,-0.721691,0.692215,169.838,-298.65)"><text x="435.055px" y="49.792px" style="font-family:'HelveticaNeue', 'Helvetica Neue';font-size:16px;fill:#5c1df4;">p</text></g><g transform="matrix(0.514925,0.857235,-0.857235,0.514925,262.839,-350.872)"><text x="441.454px" y="56.811px" style="font-family:'HelveticaNeue', 'Helvetica Neue';font-size:16px;fill:#5c1df4;">t</text></g><g transform="matrix(0.38343,0.92357,-0.92357,0.38343,330.258,-372.343)"><text x="443.998px" y="61.178px" style="font-family:'HelveticaNeue', 'Helvetica Neue';font-size:16px;fill:#5c1df4;">i</text></g><g transform="matrix(0.182215,0.983259,-0.983259,0.182215,427.771,-385.525)"><text x="445.652px" y="64.401px" style="font-family:'HelveticaNeue', 'Helvetica Neue';font-size:16px;fill:#5c1df4;">o</text></g><g transform="matrix(-0.110587,0.993866,-0.993866,-0.110587,569.803,-362.95)"><text x="447.304px" y="73.484px" style="font-family:'HelveticaNeue', 'Helvetica Neue';font-size:16px;fill:#5c1df4;">n</text></g><g transform="matrix(-0.54366,0.839305,-0.839305,-0.54366,759.597,-239.603)"><text x="444.936px" y="86.699px" style="font-family:'HelveticaNeue', 'Helvetica Neue';font-size:16px;fill:#5c1df4;">S</text></g><g transform="matrix(-0.775,0.631961,-0.631961,-0.775,839.78,-108.249)"><text x="439.16px" y="95.371px" style="font-family:'HelveticaNeue', 'Helvetica Neue';font-size:16px;fill:#5c1df4;">e</text></g><g transform="matrix(-0.903395,0.428808,-0.428808,-0.903395,866.215,6.29136)"><text x="432.399px" y="100.719px" style="font-family:'HelveticaNeue', 'Helvetica Neue';font-size:16px;fill:#5c1df4;">r</text></g><g transform="matrix(-0.971435,0.237304,-0.237304,-0.971435,867.547,101.936)"><text x="427.638px" y="103.182px" style="font-family:'HelveticaNeue', 'Helvetica Neue';font-size:16px;fill:#5c1df4;">v</text></g><g transform="matrix(-0.998793,0.0491136,-0.0491136,-0.998793,844.248,189.006)"><text x="419.802px" y="104.875px" style="font-family:'HelveticaNeue', 'Helvetica Neue';font-size:16px;fill:#5c1df4;">i</text></g><g transform="matrix(-0.988971,-0.148107,0.148107,-0.988971,812.294,271.096)"><text x="416.241px" y="105.305px" style="font-family:'HelveticaNeue', 'Helvetica Neue';font-size:16px;fill:#5c1df4;">c</text></g><g transform="matrix(-0.906959,-0.421219,0.421219,-0.906959,733.581,370.096)"><text x="407.665px" y="104.03px" style="font-family:'HelveticaNeue', 'Helvetica Neue';font-size:16px;fill:#5c1df4;">e</text></g></g><text x="82.823px" y="181.051px" style="font-family:'HelveticaNeue-Bold', 'Helvetica Neue';font-weight:700;font-size:132.964px;fill:none;stroke:#5c1df4;stroke-width:4.17px;">M</text></g></svg>