<?xml version="1.0" encoding="UTF-8" standalone="no"?>
<!DOCTYPE svg PUBLIC "-//W3C//DTD SVG 1.1//EN" "http://www.w3.org/Graphics/SVG/1.1/DTD/svg11.dtd">
<svg width="100%" height="100%" viewBox="0 0 50 50" version="1.1" xmlns="http://www.w3.org/2000/svg" xmlns:xlink="http://www.w3.org/1999/xlink" xml:space="preserve" xmlns:serif="http://www.serif.com/" style="fill-rule:evenodd;clip-rule:evenodd;stroke-linejoin:round;stroke-miterlimit:2;">
    <g id="Artboard1" transform="matrix(1,0,0,0.933466,-50,-43.3466)">
        <rect x="50" y="46.436" width="50" height="53.564" style="fill:none;"/>
        <clipPath id="_clip1">
            <rect x="50" y="46.436" width="50" height="53.564"/>
        </clipPath>
        <g clip-path="url(#_clip1)">
            <g transform="matrix(1.30763,0,0,1.42379,-0.283876,-1.83398)">
                <path d="M50.787,34.035C48.942,33.859 47.084,33.859 45.24,34.035L44.326,38.411C42.558,38.677 40.825,39.134 39.159,39.773L36.144,36.433C34.456,37.188 32.848,38.102 31.34,39.162L32.772,43.401C31.376,44.501 30.108,45.749 28.989,47.123L24.681,45.713C23.603,47.197 22.674,48.78 21.907,50.44L25.302,53.406C24.653,55.046 24.188,56.751 23.918,58.49L19.47,59.389C19.291,61.204 19.291,63.032 19.47,64.847L23.918,65.746C24.188,67.485 24.653,69.19 25.302,70.83L21.907,73.796C22.674,75.456 23.603,77.039 24.681,78.523L28.989,77.113C30.108,78.487 31.376,79.735 32.772,80.835L31.34,85.074C32.848,86.135 34.456,87.049 36.144,87.803L39.159,84.463C40.825,85.102 42.558,85.559 44.326,85.825L45.24,90.201C47.084,90.378 48.942,90.378 50.787,90.201L51.7,85.825C53.469,85.559 55.201,85.102 56.868,84.463L59.883,87.803C61.57,87.049 63.179,86.135 64.687,85.074L63.254,80.835C64.65,79.735 65.919,78.487 67.037,77.113L71.346,78.523C72.423,77.039 73.352,75.456 74.119,73.796L70.724,70.83C71.374,69.19 71.838,67.485 72.109,65.746L76.557,64.847C76.736,63.032 76.736,61.204 76.557,59.389L72.109,58.49C71.838,56.751 71.374,55.046 70.724,53.406L74.119,50.44C73.352,48.78 72.423,47.197 71.346,45.713L67.037,47.123C65.919,45.749 64.65,44.501 63.254,43.401L64.687,39.162C63.179,38.102 61.57,37.188 59.883,36.433L56.868,39.773C55.201,39.134 53.469,38.677 51.7,38.411L50.787,34.035ZM48.013,56.475C51.179,56.475 53.749,59.004 53.749,62.118C53.749,65.233 51.179,67.761 48.013,67.761C44.848,67.761 42.278,65.233 42.278,62.118C42.278,59.004 44.848,56.475 48.013,56.475Z" style="fill:rgb(87,87,87);"/>
            </g>
        </g>
    </g>
</svg>
