<svg viewBox="0 0 225 267" xmlns="http://www.w3.org/2000/svg" xml:space="preserve" fill-rule="evenodd" clip-rule="evenodd" stroke-linejoin="round" stroke-miterlimit="2">
  <path id="Artboard4" fill="none" d="M0 0h225v266.667H0z"/>
  <g id="logo">
    <path d="M118.517 37.938a96.912 96.912 0 0 0-14.951 0l-3.015 17.499a79.47 79.47 0 0 0-19.618 5.224c-3.806-4.552-7.611-9.104-11.415-13.657a96.42 96.42 0 0 0-12.949 7.429c2.066 5.551 4.131 11.101 6.194 16.652a78.881 78.881 0 0 0-14.361 14.272c-5.586-2.051-11.172-4.102-16.757-6.155a95.566 95.566 0 0 0-7.476 12.867l13.743 11.344a78.18 78.18 0 0 0-5.257 19.496c-5.87.999-11.739 1.998-17.609 2.995a94.974 94.974 0 0 0 0 14.858c5.87.998 11.739 1.996 17.609 2.996a78.18 78.18 0 0 0 5.257 19.496l-13.743 11.343a95.639 95.639 0 0 0 7.476 12.868c5.585-2.053 11.171-4.105 16.757-6.156a78.85 78.85 0 0 0 14.361 14.272c-2.063 5.551-4.128 11.102-6.194 16.652a96.312 96.312 0 0 0 12.949 7.429c3.804-4.552 7.609-9.105 11.415-13.656a79.514 79.514 0 0 0 19.618 5.224c1.006 5.832 2.011 11.665 3.015 17.498 4.976.386 9.975.386 14.951 0a90966.76 90966.76 0 0 1 3.014-17.498 79.522 79.522 0 0 0 19.619-5.224l11.415 13.656a96.363 96.363 0 0 0 12.948-7.429l-6.194-16.652a78.823 78.823 0 0 0 14.362-14.272c5.586 2.051 11.171 4.103 16.757 6.156a95.632 95.632 0 0 0 7.475-12.868l-13.742-11.343a78.224 78.224 0 0 0 5.257-19.496c5.869-1 11.739-1.998 17.608-2.996a94.974 94.974 0 0 0 0-14.858 53932.26 53932.26 0 0 1-17.608-2.995 78.224 78.224 0 0 0-5.257-19.496l13.742-11.344a95.56 95.56 0 0 0-7.475-12.867 56583.12 56583.12 0 0 1-16.757 6.155 78.855 78.855 0 0 0-14.362-14.272l6.194-16.652a96.47 96.47 0 0 0-12.948-7.429L141.15 60.661a79.478 79.478 0 0 0-19.619-5.224l-3.014-17.499Zm-7.476 37.771c32.004 0 57.987 25.82 57.987 57.624 0 31.804-25.983 57.625-57.987 57.625-32.004 0-57.987-25.821-57.987-57.625s25.983-57.624 57.987-57.624Z" fill="#323232"/>
    <path d="M124.676 36.878a6.25 6.25 0 0 0-5.677-5.171c-5.297-.41-10.618-.41-15.916 0a6.25 6.25 0 0 0-5.677 5.171c-.751 4.366-1.503 8.733-2.256 13.099a85.646 85.646 0 0 0-12.271 3.269l-8.565-10.249a6.25 6.25 0 0 0-7.478-1.638 102.578 102.578 0 0 0-13.787 7.91 6.25 6.25 0 0 0-2.337 7.344c1.544 4.148 3.087 8.297 4.629 12.445a85.026 85.026 0 0 0-8.953 8.902L33.8 73.336a6.25 6.25 0 0 0-7.299 2.315 101.814 101.814 0 0 0-7.964 13.709 6.25 6.25 0 0 0 1.654 7.53l10.282 8.486a84.284 84.284 0 0 0-3.267 12.121l-13.207 2.246a6.25 6.25 0 0 0-5.184 5.673 101.344 101.344 0 0 0 0 15.835 6.25 6.25 0 0 0 5.184 5.673l13.207 2.246a84.32 84.32 0 0 0 3.267 12.121l-10.282 8.486a6.248 6.248 0 0 0-1.654 7.529 101.752 101.752 0 0 0 7.964 13.709 6.249 6.249 0 0 0 7.299 2.316l12.588-4.624a85.036 85.036 0 0 0 8.954 8.902l-4.63 12.445a6.248 6.248 0 0 0 2.337 7.343 102.692 102.692 0 0 0 13.787 7.911 6.25 6.25 0 0 0 7.478-1.638l8.566-10.249a85.707 85.707 0 0 0 12.271 3.269l2.255 13.099a6.25 6.25 0 0 0 5.677 5.171c5.298.41 10.619.41 15.916 0a6.25 6.25 0 0 0 5.677-5.171l2.256-13.099a85.777 85.777 0 0 0 12.271-3.269l8.566 10.249a6.249 6.249 0 0 0 7.477 1.638 102.766 102.766 0 0 0 13.788-7.911 6.25 6.25 0 0 0 2.337-7.343l-4.63-12.446a85.035 85.035 0 0 0 8.954-8.902l12.587 4.625a6.249 6.249 0 0 0 7.299-2.316 101.865 101.865 0 0 0 7.965-13.709 6.25 6.25 0 0 0-1.655-7.529l-10.281-8.486a84.545 84.545 0 0 0 3.267-12.121l13.207-2.246a6.248 6.248 0 0 0 5.183-5.673c.413-5.271.413-10.565 0-15.835a6.248 6.248 0 0 0-5.183-5.673l-13.208-2.247a84.433 84.433 0 0 0-3.266-12.12l10.281-8.486a6.251 6.251 0 0 0 1.655-7.53 101.927 101.927 0 0 0-7.965-13.709 6.25 6.25 0 0 0-7.299-2.315l-12.588 4.624a85.122 85.122 0 0 0-8.953-8.902l4.63-12.445a6.251 6.251 0 0 0-2.337-7.344 102.651 102.651 0 0 0-13.788-7.91 6.249 6.249 0 0 0-7.477 1.638l-8.567 10.249a85.598 85.598 0 0 0-12.27-3.269l-2.256-13.099Zm-6.159 1.06a96.912 96.912 0 0 0-14.951 0l-3.015 17.499a79.47 79.47 0 0 0-19.618 5.224c-3.806-4.552-7.611-9.104-11.415-13.657a96.42 96.42 0 0 0-12.949 7.429c2.066 5.551 4.131 11.101 6.194 16.652a78.881 78.881 0 0 0-14.361 14.272c-5.586-2.051-11.172-4.102-16.757-6.155a95.566 95.566 0 0 0-7.476 12.867l13.743 11.344a78.18 78.18 0 0 0-5.257 19.496c-5.87.999-11.739 1.998-17.609 2.995a94.974 94.974 0 0 0 0 14.858c5.87.998 11.739 1.996 17.609 2.996a78.18 78.18 0 0 0 5.257 19.496l-13.743 11.343a95.639 95.639 0 0 0 7.476 12.868c5.585-2.053 11.171-4.105 16.757-6.156a78.85 78.85 0 0 0 14.361 14.272c-2.063 5.551-4.128 11.102-6.194 16.652a96.312 96.312 0 0 0 12.949 7.429c3.804-4.552 7.609-9.105 11.415-13.656a79.514 79.514 0 0 0 19.618 5.224c1.006 5.832 2.011 11.665 3.015 17.498 4.976.386 9.975.386 14.951 0a90966.76 90966.76 0 0 1 3.014-17.498 79.522 79.522 0 0 0 19.619-5.224l11.415 13.656a96.363 96.363 0 0 0 12.948-7.429l-6.194-16.652a78.823 78.823 0 0 0 14.362-14.272c5.586 2.051 11.171 4.103 16.757 6.156a95.632 95.632 0 0 0 7.475-12.868l-13.742-11.343a78.224 78.224 0 0 0 5.257-19.496c5.869-1 11.739-1.998 17.608-2.996a94.974 94.974 0 0 0 0-14.858 53932.26 53932.26 0 0 1-17.608-2.995 78.224 78.224 0 0 0-5.257-19.496l13.742-11.344a95.56 95.56 0 0 0-7.475-12.867 56583.12 56583.12 0 0 1-16.757 6.155 78.855 78.855 0 0 0-14.362-14.272l6.194-16.652a96.47 96.47 0 0 0-12.948-7.429L141.15 60.661a79.478 79.478 0 0 0-19.619-5.224l-3.014-17.499Zm-7.476 37.771c32.004 0 57.987 25.82 57.987 57.624 0 31.804-25.983 57.625-57.987 57.625-32.004 0-57.987-25.821-57.987-57.625s25.983-57.624 57.987-57.624Zm0 6.25c28.544 0 51.737 23.009 51.737 51.374 0 28.366-23.193 51.375-51.737 51.375s-51.737-23.009-51.737-51.375c0-28.365 23.193-51.374 51.737-51.374Z" fill="#fff"/>
    <path d="M45.487 174.796h18.615L7.454 257.723l93.879-82.927H82.717L157.98 91.87h-18.615l75.263-82.926h-37.23L102.135 91.87h18.615l-75.263 82.926Z" fill="#323232"/>
    <path d="M40.859 170.596a6.25 6.25 0 0 0 4.628 10.45h6.777l-49.97 73.151a6.25 6.25 0 0 0 9.298 8.21l93.878-82.926a6.25 6.25 0 0 0-4.137-10.935H96.83l65.778-72.475a6.252 6.252 0 0 0-4.628-10.451h-4.502l65.778-72.475a6.251 6.251 0 0 0-4.628-10.451h-37.23a6.25 6.25 0 0 0-4.629 2.05L97.506 87.67a6.248 6.248 0 0 0 4.629 10.45h4.502l-65.778 72.476Zm4.628 4.2h18.615L7.454 257.723l93.879-82.927H82.717L157.98 91.87h-18.615l75.263-82.926h-37.23L102.135 91.87h18.615l-75.263 82.926Z" fill="#fff"/>
  </g>
</svg>