<?xml version="1.0" encoding="UTF-8" standalone="no"?><!DOCTYPE svg PUBLIC "-//W3C//DTD SVG 1.1//EN" "http://www.w3.org/Graphics/SVG/1.1/DTD/svg11.dtd"><svg width="100%" height="100%" viewBox="0 0 1667 1667" version="1.1" xmlns="http://www.w3.org/2000/svg" xmlns:xlink="http://www.w3.org/1999/xlink" xml:space="preserve" xmlns:serif="http://www.serif.com/" style="fill-rule:evenodd;clip-rule:evenodd;stroke-linejoin:round;stroke-miterlimit:2;"><rect id="Artboard2" x="-0" y="0" width="1666.67" height="1666.67" style="fill:none;"/><g id="logo"><path id="cog" d="M913.929,3.907c-53.604,-5.209 -107.587,-5.209 -161.191,-0l-26.548,129.243c-51.378,7.862 -101.734,21.355 -150.16,40.235l-87.612,-98.654c-49.027,22.291 -95.778,49.282 -139.596,80.595l41.631,125.202c-40.563,32.498 -77.427,69.362 -109.925,109.925l-125.202,-41.631c-31.313,43.818 -58.304,90.569 -80.595,139.596l98.654,87.612c-18.88,48.426 -32.373,98.782 -40.235,150.16l-129.243,26.548c-5.209,53.604 -5.209,107.587 -0,161.191l129.243,26.547c7.862,51.378 21.355,101.735 40.235,150.16l-98.654,87.613c22.291,49.027 49.282,95.777 80.595,139.595l125.202,-41.63c32.498,40.563 69.362,77.427 109.925,109.924l-41.631,125.202c43.818,31.313 90.569,58.305 139.596,80.596l87.612,-98.655c48.426,18.881 98.782,32.374 150.16,40.236l26.548,129.243c53.604,5.209 107.587,5.209 161.191,0l26.547,-129.243c51.378,-7.862 101.735,-21.355 150.16,-40.236l87.613,98.655c49.027,-22.291 95.777,-49.283 139.595,-80.596l-41.63,-125.202c40.563,-32.497 77.427,-69.361 109.924,-109.924l125.202,41.63c31.313,-43.818 58.305,-90.568 80.596,-139.595l-98.655,-87.613c18.881,-48.425 32.374,-98.782 40.236,-150.16l129.243,-26.547c5.209,-53.604 5.209,-107.587 0,-161.191l-129.243,-26.548c-7.862,-51.378 -21.355,-101.734 -40.236,-150.16l98.655,-87.612c-22.291,-49.027 -49.283,-95.778 -80.596,-139.596l-125.202,41.631c-32.497,-40.563 -69.361,-77.427 -109.924,-109.925l41.63,-125.202c-43.818,-31.313 -90.568,-58.304 -139.595,-80.595l-87.613,98.654c-48.425,-18.88 -98.782,-32.373 -150.16,-40.235l-26.547,-129.243Zm-80.596,265.854c311.044,0 563.572,252.529 563.572,563.572c0,311.044 -252.528,563.572 -563.572,563.572c-311.043,0 -563.572,-252.528 -563.572,-563.572c0,-311.043 252.529,-563.572 563.572,-563.572Z" style="fill:#fff;"/><path id="lightning" d="M703.329,726.788l-85.474,0l236.854,246.817l-110.417,-0l429.093,332.08l-191.374,-305.155l117.344,0l-219.628,-228.866l116.666,-0l-318.676,-332.081l-250,0l275.612,287.205Z" style="fill:#fff;"/></g></svg>