<svg viewBox="0 0 230 230" xmlns="http://www.w3.org/2000/svg" xml:space="preserve" fill-rule="evenodd" clip-rule="evenodd" stroke-linejoin="round" stroke-miterlimit="2">
  <path id="Artboard5" fill="none" d="M0 0h229.167v229.167H0z"/>
  <path id="user" d="M97.869 112.029c-52.68 7.88-93.014 52.398-93.123 106.129a6.25 6.25 0 0 0 6.25 6.262H218.17a6.248 6.248 0 0 0 6.25-6.262c-.108-53.731-40.442-98.249-93.123-106.129 22.759-6.983 39.258-27.837 39.258-52.395 0-30.255-25.042-54.888-55.972-54.888-30.929 0-55.971 24.633-55.971 54.888 0 24.558 16.499 45.412 39.257 52.395ZM218.17 218.17c-.113-55.884-46.457-101.128-103.587-101.128-57.129 0-103.474 45.244-103.587 101.128H218.17ZM114.583 10.996c27.443 0 49.722 21.794 49.722 48.638 0 26.844-22.279 48.638-49.722 48.638-27.442 0-49.721-21.794-49.721-48.638 0-26.844 22.279-48.638 49.721-48.638Z" fill="#fff"/>
</svg>