<svg viewBox="0 0 230 230" xmlns="http://www.w3.org/2000/svg" xml:space="preserve" fill-rule="evenodd" clip-rule="evenodd" stroke-linejoin="round" stroke-miterlimit="2">
  <path id="Artboard5" fill="none" d="M0 0h229.167v229.167H0z"/>
  <clipPath id="_clip1">
    <path d="M0 0h229.167v229.167H0z"/>
  </clipPath>
  <g clip-path="url(#_clip1)">
    <path id="user" d="M79.218 109.927C32.435 124.576-1.401 167.514-1.504 218.145a12.503 12.503 0 0 0 12.5 12.525H218.17a12.498 12.498 0 0 0 12.5-12.525c-.102-50.631-33.939-93.569-80.721-108.218 16.237-11.047 26.856-29.487 26.856-50.293 0-33.666-27.805-61.138-62.222-61.138-34.416 0-62.221 27.472-62.221 61.138 0 20.806 10.619 39.246 26.856 50.293ZM218.17 218.17c-.113-55.884-46.457-101.128-103.587-101.128-57.129 0-103.474 45.244-103.587 101.128H218.17ZM114.583 10.996c27.443 0 49.722 21.794 49.722 48.638 0 26.844-22.279 48.638-49.722 48.638-27.442 0-49.721-21.794-49.721-48.638 0-26.844 22.279-48.638 49.721-48.638Z" fill="#fff" fill-opacity=".6"/>
  </g>
</svg>